<svg width="47" height="47" viewBox="0 0 47 47" fill="none" xmlns="http://www.w3.org/2000/svg">
<g clip-path="url(#clip0_191_302)">
<path d="M23.4965 46.9641C36.4653 46.9641 46.9785 36.4508 46.9785 23.4821C46.9785 10.5133 36.4653 0 23.4965 0C10.5277 0 0.0144043 10.5133 0.0144043 23.4821C0.0144043 36.4508 10.5277 46.9641 23.4965 46.9641Z" fill="#3A5A98"/>
<path d="M40.1077 6.91223C49.278 16.0825 49.2784 30.9512 40.1073 40.1222C30.9366 49.2925 16.0677 49.2925 6.89734 40.1222L40.1077 6.91223Z" fill="#345387"/>
<path d="M46.8265 26.1269L29.8403 9.14032L21.0211 17.9595L21.5465 18.4849L16.5253 23.5058L20.6351 27.6156L20.0946 28.1559L24.544 32.6053L19.4145 37.7349L28.1773 46.4977C38.0588 44.498 45.6863 36.2939 46.8265 26.1269Z" fill="#2E4D72"/>
<path d="M19.391 14.7589C19.391 15.4793 19.391 18.697 19.391 18.697H16.5059V23.5128H19.391V37.8222H25.3177V23.5128H29.2947C29.2947 23.5128 29.6673 21.2032 29.8476 18.6788C29.3299 18.6788 25.3402 18.6788 25.3402 18.6788C25.3402 18.6788 25.3402 15.8768 25.3402 15.3858C25.3402 14.8941 25.9861 14.2323 26.625 14.2323C27.2628 14.2323 28.6084 14.2323 29.8542 14.2323C29.8542 13.576 29.8542 11.3109 29.8542 9.21887C28.1908 9.21887 26.2984 9.21887 25.4637 9.21887C19.2442 9.21857 19.391 14.0388 19.391 14.7589Z" fill="white"/>
</g>
<defs>
<clipPath id="clip0_191_302">
<rect width="47" height="47" fill="white"/>
</clipPath>
</defs>
</svg>
