<svg width="1519" height="871" viewBox="0 0 1519 871" fill="none" xmlns="http://www.w3.org/2000/svg">
<g clip-path="url(#clip0_20_18)">
<path d="M1175 81.5645L1511.16 359.487C1516.88 364.216 1517.41 372.557 1512.34 378.115L1295.93 615.436C1290.86 620.993 1282.11 621.666 1276.39 616.935L1263.29 606.109L1280.87 589.695C1281.2 589.399 1281.5 589.088 1281.78 588.778C1287.5 582.502 1287 572.972 1280.42 567.534C1274.26 562.441 1264.96 562.806 1259.02 568.347L1239.57 586.495L1215.36 566.481L1232.94 550.067C1233.26 549.772 1233.57 549.46 1233.85 549.15C1239.57 542.874 1239.07 533.344 1232.49 527.907C1226.34 522.821 1217.02 523.178 1211.09 528.719L1191.64 546.867L1167.43 526.853L1185.01 510.439C1185.33 510.144 1185.64 509.823 1185.93 509.503C1191.65 503.236 1191.14 493.716 1184.56 488.278C1178.41 483.193 1169.09 483.549 1163.16 489.091L1143.71 507.239L1119.51 487.233L1137.09 470.819C1137.41 470.523 1137.71 470.212 1137.99 469.902C1143.72 463.626 1143.21 454.096 1136.63 448.651C1130.48 443.565 1121.16 443.922 1115.22 449.463L1095.78 467.619L1071.58 447.605L1089.16 431.191C1089.48 430.896 1089.78 430.584 1090.06 430.274C1095.78 423.997 1095.28 414.468 1088.7 409.03C1082.54 403.937 1073.24 404.301 1067.3 409.843L1047.85 427.991L1023.64 407.977L1041.22 391.563C1041.55 391.267 1041.85 390.955 1042.13 390.646C1047.85 384.369 1047.35 374.84 1040.77 369.402C1034.62 364.316 1025.3 364.673 1019.37 370.215L999.919 388.362L975.711 368.349L993.292 351.934C993.613 351.639 993.922 351.319 994.214 350.999C999.929 344.732 999.417 335.212 992.84 329.774C986.688 324.689 977.373 325.045 971.438 330.587L951.987 348.735L940.228 339.013C934.507 334.282 933.979 325.942 939.047 320.384L1155.46 83.0627C1160.53 77.5052 1169.28 76.8339 1175 81.5645Z" fill="#9C7878"/>
<path d="M1314.59 594.962L1295.92 615.435C1290.86 620.992 1282.11 621.665 1276.39 616.934L940.228 339.013C934.507 334.282 933.979 325.942 939.047 320.384L957.716 299.912L1314.59 594.962Z" fill="#6998AB"/>
<path d="M958.511 328.575C963.006 324.393 970.103 324.164 974.815 328.054C979.854 332.213 980.292 339.446 975.969 344.18C975.749 344.421 975.514 344.664 975.271 344.887L961.957 357.274L949.359 369.006C944.864 373.187 937.774 373.409 933.062 369.519C928.016 365.353 927.584 358.114 931.915 353.372C932.128 353.138 932.356 352.903 932.599 352.68L943.783 342.268L958.511 328.575Z" fill="#B3B3B3"/>
<path d="M997.212 360.57C1001.71 356.389 1008.8 356.16 1013.52 360.049C1018.55 364.209 1018.99 371.448 1014.66 376.19C1014.44 376.424 1014.21 376.659 1013.97 376.883L1000.66 389.269L988.052 400.996C983.557 405.177 976.475 405.404 971.755 401.508C966.716 397.349 966.284 390.109 970.615 385.367C970.829 385.133 971.057 384.898 971.299 384.675L982.483 374.264L997.212 360.57Z" fill="#B3B3B3"/>
<path d="M1035.91 392.566C1040.41 388.385 1047.5 388.149 1052.22 392.045C1057.25 396.204 1057.69 403.444 1053.36 408.186C1053.14 408.42 1052.91 408.655 1052.67 408.878L1039.36 421.265L1026.75 432.991C1022.26 437.172 1015.17 437.394 1010.46 433.504C1005.42 429.345 1004.98 422.105 1009.32 417.363C1009.53 417.129 1009.76 416.894 1010 416.671L1021.18 406.259L1035.91 392.566Z" fill="#B3B3B3"/>
<path d="M1078.06 453.262L1065.45 464.988C1060.96 469.169 1053.87 469.39 1049.16 465.501C1044.12 461.341 1043.68 454.109 1048 449.375C1048.22 449.133 1048.46 448.891 1048.7 448.668L1059.89 438.256L1074.61 424.555C1079.1 420.374 1086.2 420.144 1090.91 424.034C1095.96 428.2 1096.39 435.439 1092.06 440.182C1091.85 440.415 1091.62 440.65 1091.37 440.874L1078.06 453.262Z" fill="#B3B3B3"/>
<path d="M1113.31 456.558C1117.81 452.377 1124.91 452.148 1129.62 456.038C1134.66 460.197 1135.09 467.43 1130.77 472.164C1130.55 472.405 1130.32 472.647 1130.07 472.871L1116.76 485.257L1104.16 496.99C1099.67 501.171 1092.58 501.393 1087.86 497.503C1082.82 493.337 1082.39 486.098 1086.72 481.355C1086.93 481.122 1087.16 480.887 1087.4 480.663L1098.59 470.252L1113.31 456.558Z" fill="#B3B3B3"/>
<path d="M1152.02 488.555C1156.51 484.374 1163.61 484.145 1168.32 488.034C1173.36 492.194 1173.79 499.433 1169.46 504.175C1169.25 504.409 1169.02 504.644 1168.78 504.868L1155.46 517.254L1142.86 528.981C1138.36 533.162 1131.28 533.389 1126.56 529.493C1121.52 525.334 1121.09 518.094 1125.42 513.352C1125.63 513.118 1125.86 512.883 1126.1 512.66L1137.29 502.249L1152.02 488.555Z" fill="#B3B3B3"/>
<path d="M1190.72 520.551C1195.21 516.37 1202.3 516.134 1207.02 520.03C1212.06 524.189 1212.49 531.429 1208.16 536.171C1207.95 536.405 1207.72 536.64 1207.48 536.863L1194.16 549.25L1181.56 560.976C1177.06 565.157 1169.97 565.379 1165.26 561.489C1160.22 557.33 1159.79 550.09 1164.12 545.348C1164.33 545.114 1164.56 544.879 1164.8 544.656L1175.99 534.244L1190.72 520.551Z" fill="#B3B3B3"/>
<path d="M1229.42 552.546C1233.91 548.365 1241.01 548.136 1245.72 552.026C1250.76 556.185 1251.2 563.418 1246.87 568.152C1246.65 568.393 1246.42 568.636 1246.18 568.859L1232.86 581.246L1220.26 592.978C1215.77 597.159 1208.68 597.381 1203.97 593.491C1198.92 589.325 1198.49 582.086 1202.82 577.344C1203.03 577.11 1203.26 576.875 1203.5 576.651L1214.69 566.24L1229.42 552.546Z" fill="#B3B3B3"/>
<path d="M1268.12 584.543C1272.61 580.362 1279.71 580.132 1284.42 584.022C1289.46 588.181 1289.89 595.421 1285.56 600.163C1285.35 600.397 1285.12 600.632 1284.88 600.855L1271.56 613.242L1258.96 624.968C1254.46 629.149 1247.38 629.377 1242.66 625.481C1237.62 621.322 1237.19 614.082 1241.52 609.34C1241.73 609.106 1241.96 608.871 1242.2 608.648L1253.39 598.236L1268.12 584.543Z" fill="#B3B3B3"/>
<path d="M1245.61 228.872L1125.68 349.609L1139.83 362.352L1259.76 241.615L1245.61 228.872Z" fill="#666666"/>
<path d="M1276.07 256.31L1156.14 377.047L1170.29 389.79L1290.23 269.053L1276.07 256.31Z" fill="#666666"/>
<path d="M1306.52 283.739L1186.59 404.477L1200.75 417.219L1320.68 296.482L1306.52 283.739Z" fill="#666666"/>
<path d="M1336.98 311.178L1217.05 431.915L1231.21 444.657L1351.14 323.92L1336.98 311.178Z" fill="#666666"/>
<path d="M525.793 492.839L526.078 491.303C526.161 490.836 526.33 490.341 526.585 489.816C526.845 489.286 527.175 488.775 527.577 488.283C527.984 487.785 528.451 487.353 528.977 486.985L529.568 487.637C529.03 488.129 528.551 488.696 528.131 489.335C527.717 489.975 527.453 490.622 527.34 491.276L527.054 492.829L525.793 492.839Z" fill="#DAA520"/>
<path d="M118.243 264.042L113.176 293.169L110.89 293.187L115.956 264.06L118.243 264.042ZM132.672 271.202L132.344 273.122L122.302 273.2L122.644 271.28L132.672 271.202ZM126.777 266.021L128.965 266.004L125.209 287.608C125.05 288.518 125.087 289.242 125.319 289.78C125.552 290.308 125.913 290.689 126.404 290.922C126.894 291.155 127.447 291.269 128.063 291.264C128.375 291.262 128.65 291.236 128.887 291.187C129.124 291.137 129.347 291.084 129.556 291.025L129.725 293.012C129.44 293.109 129.117 293.197 128.757 293.275C128.396 293.354 127.97 293.395 127.477 293.399C126.559 293.406 125.718 293.209 124.954 292.808C124.2 292.407 123.627 291.81 123.236 291.017C122.854 290.225 122.762 289.255 122.961 288.108L126.777 266.021ZM142.834 263.851L142.415 266.41C142.286 267.188 142 268.019 141.557 268.903C141.124 269.777 140.568 270.629 139.889 271.458C139.21 272.278 138.442 272.994 137.584 273.606L136.571 272.521C137.467 271.699 138.261 270.76 138.951 269.704C139.651 268.638 140.096 267.555 140.285 266.455L140.732 263.867L142.834 263.851ZM156.969 275.757L154.862 276.313C154.735 275.594 154.499 274.961 154.153 274.415C153.817 273.868 153.337 273.446 152.715 273.148C152.092 272.84 151.289 272.69 150.304 272.698C148.76 272.71 147.431 273.099 146.317 273.865C145.203 274.631 144.547 275.612 144.348 276.806C144.179 277.773 144.366 278.563 144.911 279.174C145.464 279.785 146.398 280.251 147.711 280.572L150.915 281.371C152.625 281.803 153.841 282.504 154.562 283.473C155.293 284.434 155.534 285.639 155.285 287.09C155.077 288.313 154.556 289.396 153.725 290.34C152.903 291.274 151.851 292.012 150.568 292.552C149.295 293.083 147.877 293.354 146.315 293.366C144.212 293.382 142.564 292.912 141.369 291.956C140.184 290.999 139.556 289.622 139.485 287.823L141.677 287.337C141.742 288.672 142.183 289.686 143.001 290.381C143.829 291.066 145.005 291.402 146.529 291.39C148.272 291.377 149.743 290.963 150.943 290.149C152.142 289.325 152.842 288.306 153.041 287.093C153.21 286.154 153.041 285.374 152.535 284.753C152.038 284.132 151.189 283.68 149.989 283.395L146.644 282.569C144.858 282.129 143.595 281.419 142.855 280.44C142.115 279.461 141.874 278.246 142.132 276.795C142.34 275.61 142.837 274.569 143.62 273.673C144.414 272.767 145.409 272.059 146.606 271.548C147.813 271.027 149.131 270.761 150.561 270.75C152.512 270.735 154 271.173 155.024 272.065C156.059 272.947 156.707 274.177 156.969 275.757ZM174.702 265.676L175.06 263.6L195.854 263.438L195.482 265.515L186.236 265.587L181.527 292.638L179.254 292.655L183.949 265.605L174.702 265.676ZM196.484 292.522L200.298 270.676L202.485 270.659L198.671 292.504L196.484 292.522ZM202.289 266.825C201.816 266.829 201.415 266.671 201.086 266.352C200.767 266.023 200.623 265.626 200.655 265.162C200.668 264.745 200.842 264.38 201.176 264.064C201.519 263.749 201.918 263.59 202.373 263.586C202.846 263.583 203.242 263.745 203.562 264.074C203.89 264.394 204.039 264.786 204.007 265.25C203.984 265.676 203.806 266.047 203.472 266.362C203.138 266.667 202.744 266.822 202.289 266.825ZM205.606 292.451L209.42 270.605L211.551 270.588L210.956 273.916L211.155 273.915C211.789 272.802 212.672 271.919 213.804 271.267C214.936 270.605 216.222 270.268 217.661 270.257C219.186 270.245 220.366 270.6 221.203 271.323C222.05 272.045 222.6 273.035 222.855 274.293L223.025 274.291C223.689 273.036 224.644 272.039 225.89 271.301C227.137 270.552 228.56 270.172 230.161 270.159C232.216 270.144 233.706 270.785 234.633 272.085C235.56 273.375 235.815 275.21 235.398 277.59L232.836 292.239L230.648 292.256L233.211 277.607C233.5 275.834 233.298 274.481 232.604 273.549C231.921 272.617 230.807 272.157 229.264 272.169C227.54 272.183 226.111 272.729 224.975 273.807C223.84 274.877 223.133 276.241 222.854 277.9L220.322 292.336L218.106 292.353L220.698 277.534C220.967 275.95 220.778 274.673 220.133 273.703C219.487 272.733 218.369 272.254 216.778 272.266C215.708 272.275 214.717 272.543 213.803 273.071C212.89 273.589 212.117 274.3 211.485 275.205C210.862 276.1 210.451 277.13 210.252 278.296L207.794 292.434L205.606 292.451ZM248.325 292.573C246.317 292.588 244.659 292.123 243.351 291.177C242.052 290.221 241.149 288.898 240.642 287.207C240.135 285.516 240.071 283.575 240.448 281.385C240.835 279.195 241.576 277.243 242.669 275.53C243.772 273.808 245.118 272.453 246.707 271.465C248.297 270.478 250.015 269.977 251.861 269.962C253.064 269.953 254.175 270.176 255.194 270.632C256.213 271.079 257.074 271.749 257.776 272.643C258.479 273.528 258.963 274.632 259.227 275.956C259.49 277.27 259.473 278.799 259.175 280.544L258.966 281.724L241.822 281.857L242.165 279.909L257.079 279.793C257.347 278.314 257.286 276.984 256.898 275.803C256.52 274.623 255.874 273.69 254.961 273.006C254.048 272.313 252.924 271.971 251.589 271.981C250.216 271.992 248.911 272.39 247.674 273.176C246.436 273.962 245.381 274.993 244.509 276.269C243.647 277.544 243.072 278.922 242.786 280.401L242.547 281.738C242.229 283.597 242.254 285.187 242.622 286.51C242.99 287.823 243.683 288.831 244.7 289.533C245.716 290.235 247.03 290.58 248.64 290.568C249.738 290.559 250.729 290.372 251.613 290.005C252.496 289.638 253.258 289.173 253.897 288.609C254.536 288.046 255.047 287.46 255.431 286.851L257.328 287.56C256.857 288.397 256.193 289.198 255.334 289.962C254.476 290.726 253.458 291.349 252.279 291.832C251.101 292.315 249.783 292.562 248.325 292.573ZM113.375 314.149L113.732 312.072L134.527 311.911L134.155 313.987L124.908 314.059L120.2 341.11L117.927 341.128L122.622 314.077L113.375 314.149ZM140.327 341.408C138.452 341.423 136.874 340.947 135.594 339.982C134.324 339.017 133.426 337.674 132.9 335.955C132.384 334.236 132.315 332.257 132.693 330.02C133.071 327.839 133.801 325.906 134.885 324.222C135.969 322.538 137.296 321.216 138.866 320.257C140.436 319.298 142.125 318.811 143.934 318.797C145.818 318.782 147.396 319.262 148.666 320.237C149.946 321.203 150.844 322.55 151.36 324.278C151.886 325.998 151.964 327.976 151.596 330.214C151.218 332.394 150.483 334.322 149.39 335.997C148.297 337.672 146.965 338.989 145.395 339.948C143.834 340.907 142.145 341.394 140.327 341.408ZM140.371 339.405C141.924 339.393 143.329 338.961 144.586 338.108C145.852 337.246 146.908 336.097 147.753 334.661C148.598 333.224 149.17 331.634 149.468 329.889C149.756 328.211 149.736 326.682 149.406 325.302C149.076 323.922 148.451 322.829 147.53 322.022C146.608 321.205 145.404 320.802 143.918 320.814C142.374 320.826 140.969 321.263 139.703 322.125C138.436 322.987 137.376 324.141 136.521 325.587C135.676 327.023 135.11 328.609 134.821 330.344C134.523 332.022 134.539 333.551 134.869 334.931C135.198 336.302 135.824 337.395 136.745 338.212C137.676 339.019 138.885 339.417 140.371 339.405ZM170.17 313.707L170.528 311.631L191.322 311.469L190.95 313.545L181.704 313.617L176.995 340.668L174.722 340.686L179.417 313.635L170.17 313.707ZM197.349 340.965C195.342 340.98 193.684 340.515 192.375 339.569C191.076 338.613 190.173 337.29 189.666 335.599C189.159 333.908 189.095 331.967 189.472 329.777C189.859 327.587 190.6 325.635 191.693 323.922C192.796 322.2 194.142 320.845 195.732 319.857C197.321 318.869 199.039 318.368 200.885 318.354C202.088 318.345 203.199 318.568 204.218 319.024C205.237 319.471 206.098 320.141 206.8 321.035C207.503 321.92 207.987 323.024 208.251 324.347C208.514 325.661 208.497 327.191 208.199 328.935L207.991 330.116L190.846 330.249L191.189 328.301L206.103 328.185C206.371 326.706 206.311 325.376 205.923 324.195C205.544 323.014 204.898 322.082 203.985 321.398C203.072 320.704 201.948 320.363 200.613 320.373C199.24 320.384 197.935 320.782 196.698 321.568C195.46 322.354 194.406 323.385 193.534 324.661C192.671 325.936 192.096 327.314 191.81 328.793L191.571 330.13C191.253 331.988 191.278 333.579 191.646 334.902C192.014 336.215 192.707 337.223 193.724 337.925C194.741 338.627 196.054 338.972 197.664 338.96C198.762 338.951 199.753 338.763 200.637 338.397C201.52 338.03 202.282 337.565 202.921 337.001C203.56 336.438 204.071 335.851 204.455 335.242L206.352 335.952C205.881 336.789 205.217 337.589 204.358 338.354C203.5 339.118 202.482 339.741 201.304 340.224C200.126 340.706 198.807 340.953 197.349 340.965ZM217.824 340.834C216.536 340.844 215.402 340.597 214.421 340.093C213.441 339.59 212.713 338.857 212.238 337.895C211.763 336.923 211.64 335.74 211.869 334.347C212.057 333.332 212.4 332.468 212.899 331.754C213.397 331.03 214.046 330.424 214.845 329.935C215.644 329.436 216.585 329.036 217.667 328.734C218.759 328.422 219.982 328.181 221.337 328.009C222.522 327.858 223.556 327.718 224.437 327.588C225.319 327.458 226.016 327.263 226.53 327.003C227.043 326.744 227.35 326.339 227.449 325.789L227.568 325.106C227.836 323.57 227.6 322.36 226.859 321.476C226.118 320.582 224.9 320.142 223.205 320.155C221.643 320.167 220.262 320.528 219.063 321.238C217.874 321.938 216.986 322.788 216.401 323.787L214.489 323.035C215.133 321.903 215.936 320.983 216.898 320.275C217.86 319.557 218.897 319.033 220.007 318.703C221.127 318.362 222.246 318.188 223.363 318.179C224.263 318.172 225.138 318.289 225.988 318.528C226.839 318.758 227.583 319.145 228.223 319.69C228.872 320.224 229.339 320.95 229.625 321.866C229.921 322.782 229.954 323.913 229.726 325.26L227.103 340.279L224.916 340.296L225.571 336.626L225.429 336.627C224.968 337.351 224.371 338.032 223.637 338.672C222.902 339.312 222.046 339.83 221.067 340.226C220.098 340.622 219.017 340.825 217.824 340.834ZM218.352 338.827C219.706 338.817 220.949 338.494 222.081 337.861C223.213 337.217 224.157 336.363 224.914 335.296C225.68 334.22 226.178 333.023 226.406 331.705L226.972 328.534C226.734 328.716 226.387 328.884 225.931 329.039C225.475 329.185 224.968 329.312 224.408 329.42C223.848 329.529 223.275 329.628 222.687 329.718C222.109 329.798 221.578 329.868 221.095 329.929C219.682 330.11 218.477 330.385 217.48 330.752C216.493 331.11 215.712 331.59 215.139 332.191C214.576 332.782 214.215 333.524 214.056 334.415C213.817 335.809 214.107 336.895 214.924 337.675C215.741 338.454 216.884 338.838 218.352 338.827ZM234.042 340.225L237.856 318.379L239.987 318.363L239.392 321.691L239.59 321.689C240.224 320.576 241.107 319.694 242.24 319.041C243.372 318.379 244.658 318.042 246.097 318.031C247.621 318.019 248.802 318.374 249.639 319.097C250.485 319.82 251.036 320.809 251.291 322.067L251.461 322.066C252.125 320.81 253.08 319.814 254.326 319.075C255.573 318.327 256.996 317.946 258.597 317.934C260.651 317.918 262.142 318.56 263.069 319.859C263.996 321.149 264.251 322.984 263.834 325.364L261.271 340.013L259.084 340.03L261.646 325.381C261.935 323.608 261.733 322.256 261.04 321.323C260.357 320.391 259.243 319.931 257.7 319.943C255.976 319.957 254.547 320.503 253.411 321.582C252.275 322.651 251.568 324.015 251.29 325.674L248.757 340.11L246.542 340.128L249.134 325.308C249.402 323.724 249.214 322.448 248.569 321.477C247.923 320.507 246.805 320.028 245.214 320.04C244.144 320.049 243.152 320.317 242.239 320.845C241.326 321.363 240.553 322.075 239.921 322.979C239.298 323.874 238.887 324.905 238.688 326.071L236.229 340.208L234.042 340.225ZM283.464 331.759L285.863 318.006L288.05 317.989L284.236 339.834L282.048 339.852L282.674 336.267L282.504 336.269C281.813 337.391 280.835 338.322 279.569 339.061C278.313 339.8 276.895 340.176 275.313 340.188C273.902 340.199 272.707 339.9 271.727 339.293C270.747 338.685 270.049 337.8 269.633 336.639C269.225 335.468 269.166 334.048 269.454 332.379L271.957 318.114L274.144 318.097L271.671 332.234C271.373 333.988 271.65 335.402 272.503 336.474C273.365 337.538 274.62 338.063 276.268 338.05C277.319 338.042 278.353 337.792 279.371 337.302C280.388 336.801 281.265 336.084 282.001 335.151C282.748 334.207 283.235 333.077 283.464 331.759ZM289.734 347.973L294.992 317.935L297.123 317.918L296.348 322.398L296.618 322.396C297.06 321.616 297.624 320.859 298.312 320.125C299 319.381 299.838 318.768 300.827 318.287C301.816 317.806 302.959 317.56 304.256 317.55C306.036 317.536 307.509 318.003 308.676 318.95C309.842 319.888 310.646 321.203 311.087 322.894C311.537 324.586 311.568 326.546 311.181 328.774C310.793 331.002 310.077 332.972 309.03 334.685C307.994 336.388 306.728 337.723 305.234 338.691C303.749 339.659 302.121 340.15 300.35 340.164C299.072 340.174 298.018 339.945 297.188 339.478C296.359 339.011 295.72 338.41 295.272 337.675C294.823 336.94 294.507 336.18 294.324 335.396L294.125 335.397L291.935 347.956L289.734 347.973ZM295.244 328.869C294.936 330.671 294.923 332.276 295.205 333.684C295.487 335.084 296.065 336.182 296.939 336.98C297.813 337.778 298.965 338.172 300.395 338.161C301.863 338.149 303.182 337.727 304.354 336.894C305.535 336.052 306.524 334.927 307.321 333.519C308.128 332.102 308.686 330.516 308.994 328.762C309.292 327.018 309.3 325.451 309.018 324.061C308.735 322.671 308.157 321.573 307.283 320.765C306.419 319.957 305.248 319.559 303.771 319.571C302.322 319.582 301.007 319.99 299.826 320.795C298.655 321.59 297.671 322.686 296.874 324.084C296.086 325.482 295.543 327.077 295.244 328.869ZM326.365 339.507L323.979 339.525L339.585 310.316L342.085 310.297L347.558 339.342L345.171 339.361L340.427 313.264L340.257 313.265L326.365 339.507ZM330.589 328.41L344.821 328.299L344.464 330.376L330.217 330.486L330.589 328.41ZM356.751 325.423L354.351 339.289L352.163 339.306L355.978 317.461L358.108 317.444L357.512 320.886L357.711 320.884C358.402 319.752 359.361 318.845 360.588 318.163C361.825 317.472 363.234 317.12 364.815 317.108C366.273 317.096 367.502 317.395 368.5 318.002C369.509 318.61 370.221 319.499 370.638 320.67C371.064 321.831 371.133 323.246 370.844 324.915L368.342 339.18L366.154 339.197L368.628 325.06C368.945 323.24 368.687 321.793 367.853 320.72C367.019 319.638 365.731 319.103 363.989 319.117C362.815 319.126 361.719 319.39 360.702 319.909C359.694 320.429 358.84 321.16 358.141 322.102C357.442 323.045 356.979 324.152 356.751 325.423ZM382.901 339.522C381.121 339.536 379.647 339.069 378.481 338.122C377.315 337.174 376.511 335.855 376.07 334.163C375.63 332.472 375.598 330.507 375.976 328.27C376.373 326.051 377.09 324.09 378.126 322.387C379.163 320.684 380.428 319.349 381.923 318.381C383.427 317.413 385.064 316.922 386.835 316.908C388.132 316.898 389.186 317.127 389.997 317.594C390.817 318.061 391.446 318.662 391.885 319.397C392.334 320.123 392.645 320.873 392.819 321.648L393.032 321.646L395.073 309.885L397.261 309.868L392.194 338.995L390.064 339.012L390.838 334.645L390.568 334.647C390.116 335.437 389.537 336.203 388.831 336.947C388.124 337.692 387.281 338.304 386.302 338.785C385.322 339.266 384.189 339.512 382.901 339.522ZM383.343 337.516C384.783 337.504 386.093 337.092 387.274 336.278C388.454 335.464 389.448 334.353 390.255 332.945C391.062 331.528 391.62 329.919 391.928 328.117C392.245 326.325 392.254 324.735 391.953 323.345C391.661 321.955 391.073 320.871 390.189 320.092C389.306 319.303 388.14 318.915 386.691 318.926C385.223 318.938 383.903 319.355 382.732 320.178C381.561 321.002 380.586 322.112 379.807 323.51C379.029 324.908 378.486 326.48 378.178 328.224C377.88 329.978 377.867 331.56 378.14 332.969C378.412 334.368 378.981 335.481 379.845 336.307C380.71 337.124 381.876 337.527 383.343 337.516ZM115.173 360.056L117.758 360.036L124.11 385.837L124.337 385.835L139.661 359.866L142.232 359.846L137.165 388.973L135.006 388.99L139.223 364.883L139.024 364.885L124.694 389.07L122.592 389.087L116.681 365.058L116.482 365.06L112.266 389.167L110.107 389.184L115.173 360.056ZM150.521 389.353C149.233 389.363 148.098 389.116 147.118 388.612C146.137 388.108 145.409 387.375 144.934 386.413C144.459 385.442 144.336 384.259 144.565 382.865C144.754 381.851 145.097 380.986 145.595 380.272C146.093 379.549 146.742 378.943 147.542 378.453C148.341 377.955 149.282 377.555 150.364 377.253C151.455 376.941 152.678 376.7 154.034 376.528C155.219 376.377 156.252 376.236 157.134 376.106C158.015 375.976 158.713 375.782 159.226 375.522C159.74 375.262 160.046 374.858 160.145 374.308L160.264 373.625C160.533 372.089 160.296 370.879 159.555 369.994C158.815 369.101 157.597 368.66 155.902 368.673C154.339 368.686 152.959 369.047 151.76 369.757C150.57 370.457 149.683 371.307 149.097 372.306L147.186 371.553C147.83 370.422 148.632 369.502 149.595 368.794C150.557 368.076 151.593 367.552 152.704 367.221C153.824 366.881 154.943 366.707 156.06 366.698C156.96 366.691 157.834 366.807 158.685 367.047C159.535 367.277 160.28 367.664 160.919 368.208C161.568 368.743 162.036 369.469 162.322 370.385C162.617 371.301 162.651 372.432 162.422 373.779L159.8 388.797L157.612 388.814L158.267 385.145L158.125 385.146C157.665 385.869 157.067 386.551 156.333 387.191C155.599 387.831 154.742 388.349 153.764 388.745C152.795 389.141 151.714 389.343 150.521 389.353ZM151.048 387.346C152.402 387.335 153.645 387.013 154.777 386.379C155.909 385.736 156.854 384.881 157.61 383.815C158.377 382.739 158.874 381.542 159.103 380.224L159.668 377.052C159.43 377.234 159.083 377.403 158.627 377.558C158.172 377.703 157.664 377.83 157.104 377.939C156.545 378.047 155.971 378.146 155.383 378.236C154.805 378.317 154.274 378.387 153.791 378.447C152.379 378.629 151.174 378.903 150.177 379.271C149.189 379.629 148.409 380.108 147.836 380.709C147.272 381.301 146.911 382.042 146.752 382.934C146.514 384.327 146.803 385.414 147.62 386.194C148.438 386.973 149.58 387.357 151.048 387.346ZM171.326 374.86L168.926 388.727L166.738 388.744L170.553 366.898L172.683 366.881L172.087 370.323L172.286 370.321C172.977 369.189 173.936 368.282 175.163 367.601C176.4 366.909 177.809 366.557 179.39 366.545C180.848 366.534 182.077 366.832 183.075 367.44C184.084 368.047 184.796 368.936 185.213 370.107C185.639 371.269 185.708 372.684 185.419 374.352L182.917 388.618L180.73 388.635L183.203 374.498C183.52 372.677 183.262 371.23 182.428 370.157C181.594 369.075 180.306 368.541 178.564 368.554C177.39 368.563 176.294 368.827 175.277 369.347C174.269 369.866 173.415 370.597 172.716 371.54C172.017 372.482 171.554 373.589 171.326 374.86ZM195.714 389.001C194.427 389.011 193.292 388.764 192.312 388.261C191.331 387.757 190.603 387.024 190.128 386.062C189.653 385.09 189.53 383.908 189.759 382.514C189.948 381.499 190.291 380.635 190.789 379.921C191.287 379.197 191.936 378.591 192.735 378.102C193.535 377.603 194.476 377.203 195.558 376.901C196.649 376.59 197.872 376.348 199.228 376.177C200.413 376.025 201.446 375.885 202.328 375.755C203.209 375.625 203.907 375.43 204.42 375.171C204.934 374.911 205.24 374.506 205.339 373.956L205.458 373.273C205.727 371.737 205.49 370.527 204.749 369.643C204.009 368.749 202.791 368.309 201.096 368.322C199.533 368.334 198.153 368.695 196.954 369.405C195.764 370.106 194.877 370.955 194.291 371.954L192.38 371.202C193.023 370.07 193.826 369.15 194.789 368.442C195.751 367.724 196.787 367.2 197.898 366.87C199.018 366.53 200.136 366.355 201.254 366.347C202.153 366.34 203.028 366.456 203.879 366.695C204.729 366.926 205.474 367.313 206.113 367.857C206.762 368.392 207.23 369.117 207.516 370.033C207.811 370.95 207.845 372.081 207.616 373.427L204.994 388.446L202.806 388.463L203.461 384.794L203.319 384.795C202.859 385.518 202.261 386.2 201.527 386.84C200.793 387.48 199.936 387.998 198.958 388.394C197.989 388.789 196.908 388.992 195.714 389.001ZM196.242 386.994C197.596 386.984 198.839 386.662 199.971 386.028C201.103 385.385 202.048 384.53 202.804 383.464C203.571 382.388 204.068 381.191 204.297 379.873L204.862 376.701C204.624 376.883 204.277 377.051 203.821 377.206C203.366 377.352 202.858 377.479 202.298 377.587C201.739 377.696 201.165 377.795 200.577 377.885C199.999 377.965 199.468 378.035 198.985 378.096C197.573 378.277 196.368 378.552 195.371 378.92C194.383 379.278 193.603 379.757 193.03 380.358C192.466 380.95 192.105 381.691 191.946 382.582C191.708 383.976 191.997 385.063 192.814 385.842C193.632 386.622 194.774 387.006 196.242 386.994ZM218.623 396.976C217.193 396.987 215.954 396.812 214.906 396.451C213.868 396.089 213.02 395.58 212.362 394.922C211.714 394.264 211.256 393.51 210.989 392.66L212.986 391.523C213.19 392.137 213.516 392.707 213.967 393.234C214.417 393.77 215.038 394.201 215.831 394.526C216.624 394.851 217.631 395.009 218.852 395C220.85 394.984 222.554 394.459 223.964 393.426C225.383 392.392 226.277 390.818 226.644 388.704L227.51 383.556L227.311 383.557C226.869 384.346 226.29 385.089 225.575 385.786C224.868 386.483 224.026 387.048 223.047 387.482C222.068 387.916 220.949 388.137 219.689 388.147C217.947 388.161 216.483 387.737 215.297 386.875C214.12 386.013 213.297 384.779 212.827 383.173C212.357 381.567 212.316 379.659 212.703 377.45C213.091 375.25 213.798 373.303 214.825 371.61C215.852 369.916 217.112 368.59 218.607 367.632C220.101 366.673 221.743 366.187 223.533 366.173C224.83 366.163 225.889 366.392 226.709 366.859C227.529 367.326 228.158 367.927 228.597 368.662C229.046 369.388 229.367 370.138 229.559 370.913L229.786 370.911L230.547 366.431L232.678 366.415L228.803 388.801C228.484 390.64 227.847 392.16 226.89 393.361C225.934 394.57 224.743 395.47 223.318 396.058C221.902 396.657 220.337 396.962 218.623 396.976ZM220.146 386.141C221.566 386.13 222.857 385.77 224.018 385.06C225.189 384.341 226.172 383.324 226.969 382.012C227.775 380.689 228.332 379.118 228.641 377.297C228.949 375.534 228.952 373.967 228.651 372.596C228.349 371.216 227.752 370.136 226.859 369.357C225.975 368.569 224.809 368.18 223.36 368.192C221.883 368.203 220.559 368.62 219.387 369.444C218.226 370.258 217.26 371.359 216.491 372.747C215.723 374.136 215.189 375.688 214.891 377.404C214.593 379.139 214.59 380.664 214.882 381.978C215.174 383.292 215.758 384.319 216.632 385.06C217.507 385.792 218.678 386.152 220.146 386.141ZM244.456 388.594C242.449 388.609 240.791 388.144 239.482 387.198C238.183 386.242 237.28 384.919 236.773 383.228C236.266 381.537 236.202 379.596 236.579 377.406C236.967 375.216 237.707 373.264 238.8 371.551C239.903 369.829 241.249 368.474 242.839 367.486C244.428 366.499 246.146 365.998 247.993 365.983C249.195 365.974 250.306 366.197 251.325 366.653C252.344 367.1 253.205 367.77 253.908 368.664C254.611 369.549 255.094 370.653 255.358 371.976C255.622 373.291 255.604 374.82 255.306 376.564L255.098 377.745L237.953 377.878L238.296 375.93L253.21 375.814C253.478 374.335 253.418 373.005 253.03 371.824C252.651 370.643 252.005 369.711 251.092 369.027C250.18 368.333 249.056 367.992 247.72 368.002C246.347 368.013 245.042 368.411 243.805 369.197C242.567 369.983 241.513 371.014 240.641 372.29C239.778 373.565 239.203 374.943 238.917 376.422L238.679 377.759C238.36 379.617 238.385 381.208 238.753 382.531C239.121 383.844 239.814 384.852 240.831 385.554C241.848 386.256 243.161 386.601 244.771 386.589C245.869 386.58 246.86 386.392 247.744 386.026C248.627 385.659 249.389 385.194 250.028 384.63C250.667 384.067 251.178 383.48 251.562 382.871L253.459 383.581C252.988 384.418 252.324 385.218 251.465 385.983C250.607 386.747 249.589 387.37 248.411 387.853C247.233 388.335 245.914 388.582 244.456 388.594ZM273.084 358.828L275.683 358.808L282.132 372.663L282.388 372.661L293.652 358.669L296.336 358.648L283.008 374.986L280.787 387.857L278.514 387.874L280.735 375.003L273.084 358.828ZM301.219 388.152C299.344 388.167 297.767 387.691 296.487 386.726C295.217 385.761 294.319 384.418 293.793 382.699C293.277 380.98 293.208 379.001 293.586 376.764C293.963 374.583 294.694 372.651 295.778 370.966C296.861 369.282 298.188 367.96 299.758 367.001C301.329 366.042 303.018 365.555 304.827 365.541C306.711 365.527 308.289 366.007 309.559 366.982C310.839 367.947 311.737 369.294 312.253 371.023C312.779 372.742 312.857 374.72 312.489 376.958C312.111 379.139 311.376 381.066 310.283 382.741C309.189 384.416 307.858 385.733 306.288 386.693C304.727 387.652 303.037 388.138 301.219 388.152ZM301.264 386.149C302.817 386.137 304.222 385.705 305.479 384.852C306.745 383.99 307.801 382.841 308.646 381.405C309.491 379.968 310.062 378.378 310.361 376.633C310.649 374.955 310.628 373.426 310.299 372.046C309.969 370.666 309.344 369.573 308.422 368.766C307.501 367.949 306.297 367.547 304.81 367.558C303.267 367.57 301.862 368.007 300.595 368.869C299.329 369.731 298.269 370.885 297.414 372.331C296.569 373.768 296.002 375.353 295.714 377.088C295.416 378.767 295.432 380.296 295.761 381.675C296.091 383.046 296.716 384.139 297.638 384.956C298.569 385.763 299.777 386.161 301.264 386.149ZM331.704 379.379L334.102 365.626L336.29 365.609L332.476 387.455L330.288 387.472L330.914 383.888L330.744 383.889C330.053 385.012 329.074 385.943 327.809 386.681C326.553 387.42 325.135 387.796 323.553 387.808C322.142 387.819 320.947 387.521 319.967 386.913C318.987 386.305 318.289 385.42 317.872 384.259C317.465 383.088 317.406 381.668 317.694 379.999L320.197 365.734L322.384 365.717L319.911 379.854C319.613 381.608 319.89 383.022 320.743 384.095C321.605 385.158 322.86 385.683 324.508 385.67C325.559 385.662 326.593 385.413 327.61 384.922C328.628 384.422 329.505 383.705 330.241 382.771C330.988 381.828 331.475 380.697 331.704 379.379ZM339.389 387.401L343.204 365.555L345.334 365.539L344.739 368.924L344.909 368.922C345.534 367.81 346.459 366.912 347.686 366.231C348.923 365.539 350.242 365.188 351.643 365.177C351.833 365.176 352.032 365.174 352.24 365.173C352.448 365.171 352.628 365.179 352.78 365.197L352.392 367.415C352.279 367.407 352.108 367.389 351.881 367.363C351.654 367.326 351.394 367.31 351.101 367.312C349.936 367.321 348.854 367.58 347.856 368.09C346.858 368.59 346.019 369.278 345.339 370.155C344.669 371.031 344.235 372.029 344.037 373.147L341.577 387.384L339.389 387.401ZM365.216 387.2L370.283 358.073L379.487 358.001C381.457 357.986 383.054 358.362 384.279 359.128C385.503 359.886 386.352 360.935 386.824 362.276C387.305 363.607 387.397 365.122 387.099 366.819C386.811 368.497 386.192 370.012 385.244 371.364C384.305 372.707 383.089 373.776 381.596 374.574C380.103 375.362 378.376 375.764 376.416 375.779L368.888 375.837L369.246 373.775L376.731 373.717C378.237 373.705 379.556 373.402 380.687 372.806C381.819 372.2 382.739 371.384 383.448 370.355C384.158 369.318 384.626 368.145 384.855 366.836C385.074 365.509 385.008 364.335 384.656 363.315C384.314 362.296 383.677 361.5 382.744 360.93C381.811 360.35 380.588 360.066 379.072 360.078L372.198 360.131L367.503 387.182L365.216 387.2ZM389.505 387.011L393.319 365.166L395.45 365.149L394.854 368.534L395.025 368.533C395.649 367.42 396.575 366.523 397.802 365.841C399.039 365.149 400.358 364.798 401.759 364.787C401.949 364.786 402.147 364.784 402.356 364.783C402.564 364.781 402.744 364.789 402.895 364.807L402.508 367.026C402.394 367.017 402.224 367 401.997 366.973C401.77 366.937 401.51 366.92 401.216 366.922C400.051 366.931 398.97 367.191 397.972 367.7C396.973 368.2 396.134 368.889 395.455 369.765C394.785 370.641 394.351 371.639 394.152 372.758L391.693 386.994L389.505 387.011ZM411.255 387.297C409.38 387.311 407.803 386.836 406.523 385.871C405.252 384.905 404.354 383.563 403.829 381.844C403.312 380.124 403.243 378.146 403.621 375.908C403.999 373.727 404.73 371.795 405.813 370.111C406.897 368.426 408.224 367.104 409.794 366.145C411.364 365.186 413.054 364.7 414.862 364.686C416.747 364.671 418.324 365.151 419.595 366.126C420.874 367.091 421.772 368.438 422.289 370.167C422.814 371.886 422.893 373.865 422.524 376.102C422.147 378.283 421.411 380.211 420.318 381.886C419.225 383.561 417.893 384.878 416.323 385.837C414.763 386.796 413.073 387.283 411.255 387.297ZM411.3 385.294C412.853 385.282 414.258 384.849 415.515 383.997C416.781 383.135 417.837 381.986 418.682 380.549C419.527 379.113 420.098 377.522 420.396 375.778C420.685 374.1 420.664 372.571 420.334 371.191C420.005 369.811 419.379 368.717 418.458 367.91C417.537 367.094 416.333 366.691 414.846 366.703C413.302 366.715 411.898 367.152 410.631 368.014C409.365 368.876 408.304 370.03 407.45 371.475C406.605 372.912 406.038 374.498 405.749 376.233C405.451 377.911 405.467 379.44 405.797 380.82C406.127 382.19 406.752 383.284 407.674 384.1C408.604 384.907 409.813 385.305 411.3 385.294ZM430.289 364.878L432.477 364.861L428.274 389.053C428.065 390.248 427.65 391.283 427.027 392.159C426.414 393.035 425.641 393.714 424.71 394.194C423.778 394.684 422.729 394.934 421.565 394.943C421.479 394.944 421.394 394.944 421.309 394.945C421.224 394.946 421.129 394.937 421.025 394.919L421.411 392.871C421.506 392.87 421.591 392.869 421.667 392.869C421.742 392.868 421.823 392.867 421.908 392.867C422.959 392.858 423.866 392.52 424.629 391.851C425.383 391.192 425.868 390.265 426.087 389.07L430.289 364.878ZM432.223 361.071C431.74 361.075 431.339 360.917 431.02 360.597C430.701 360.268 430.552 359.872 430.575 359.408C430.598 358.981 430.776 358.611 431.11 358.296C431.453 357.98 431.852 357.821 432.307 357.818C432.78 357.814 433.177 357.977 433.496 358.305C433.825 358.625 433.973 359.017 433.941 359.481C433.918 359.907 433.74 360.278 433.406 360.593C433.072 360.908 432.678 361.067 432.223 361.071ZM444.216 387.04C442.208 387.056 440.55 386.591 439.242 385.645C437.943 384.689 437.04 383.365 436.533 381.674C436.026 379.984 435.961 378.043 436.339 375.853C436.726 373.662 437.466 371.711 438.56 369.998C439.663 368.275 441.009 366.92 442.598 365.933C444.188 364.945 445.906 364.444 447.752 364.43C448.955 364.42 450.065 364.644 451.084 365.1C452.103 365.546 452.964 366.217 453.667 367.111C454.37 367.995 454.853 369.1 455.117 370.423C455.381 371.737 455.364 373.267 455.066 375.011L454.857 376.192L437.713 376.325L438.055 374.376L452.97 374.26C453.237 372.781 453.177 371.451 452.789 370.271C452.411 369.09 451.765 368.158 450.852 367.474C449.939 366.78 448.815 366.438 447.48 366.449C446.107 366.459 444.802 366.858 443.564 367.644C442.327 368.43 441.272 369.461 440.4 370.736C439.538 372.012 438.963 373.389 438.676 374.869L438.438 376.206C438.12 378.064 438.145 379.655 438.513 380.977C438.881 382.291 439.573 383.298 440.59 384.001C441.607 384.703 442.921 385.048 444.53 385.035C445.629 385.027 446.62 384.839 447.503 384.472C448.387 384.106 449.148 383.641 449.787 383.077C450.426 382.513 450.938 381.927 451.321 381.318L453.219 382.028C452.748 382.865 452.083 383.665 451.225 384.429C450.367 385.193 449.348 385.817 448.17 386.299C446.992 386.782 445.674 387.029 444.216 387.04ZM467.106 386.862C465.174 386.877 463.582 386.402 462.331 385.437C461.079 384.462 460.21 383.128 459.722 381.437C459.234 379.737 459.174 377.806 459.542 375.644C459.919 373.454 460.655 371.507 461.748 369.803C462.851 368.09 464.202 366.74 465.801 365.752C467.409 364.765 469.146 364.263 471.011 364.249C472.451 364.238 473.698 364.512 474.754 365.072C475.82 365.632 476.642 366.416 477.221 367.425C477.809 368.433 478.088 369.61 478.058 370.955L475.842 370.972C475.806 369.609 475.347 368.481 474.464 367.588C473.581 366.696 472.349 366.255 470.768 366.268C469.319 366.279 467.966 366.682 466.71 367.478C465.454 368.264 464.389 369.357 463.516 370.755C462.643 372.145 462.047 373.75 461.73 375.57C461.412 377.372 461.432 378.976 461.79 380.384C462.148 381.783 462.801 382.881 463.751 383.679C464.711 384.476 465.924 384.869 467.392 384.857C468.415 384.85 469.382 384.643 470.294 384.238C471.207 383.834 472.011 383.269 472.709 382.544C473.415 381.819 473.952 380.967 474.32 379.989L476.536 379.971C476.089 381.31 475.403 382.494 474.476 383.524C473.559 384.554 472.468 385.367 471.204 385.964C469.949 386.551 468.583 386.851 467.106 386.862ZM493.05 364.39L492.722 366.31L482.68 366.388L483.022 364.468L493.05 364.39ZM487.155 359.209L489.343 359.192L485.587 380.796C485.428 381.706 485.465 382.43 485.697 382.968C485.93 383.497 486.291 383.877 486.782 384.11C487.272 384.343 487.825 384.457 488.441 384.452C488.753 384.45 489.028 384.424 489.265 384.375C489.502 384.326 489.725 384.272 489.934 384.213L490.103 386.201C489.818 386.298 489.495 386.385 489.135 386.464C488.774 386.542 488.348 386.584 487.855 386.587C486.937 386.595 486.096 386.397 485.332 385.996C484.578 385.595 484.005 384.998 483.614 384.206C483.232 383.413 483.14 382.444 483.339 381.296L487.155 359.209ZM512.19 368.985L510.084 369.541C509.957 368.823 509.721 368.19 509.375 367.643C509.039 367.097 508.559 366.675 507.937 366.376C507.314 366.069 506.51 365.919 505.526 365.926C503.982 365.938 502.653 366.327 501.539 367.094C500.425 367.86 499.769 368.84 499.569 370.035C499.401 371.002 499.588 371.791 500.132 372.402C500.686 373.014 501.62 373.48 502.933 373.801L506.137 374.6C507.847 375.032 509.063 375.732 509.784 376.702C510.515 377.662 510.756 378.867 510.507 380.318C510.298 381.541 509.778 382.625 508.947 383.569C508.125 384.503 507.073 385.24 505.79 385.78C504.517 386.311 503.099 386.582 501.536 386.595C499.434 386.611 497.786 386.141 496.591 385.184C495.406 384.228 494.778 382.85 494.707 381.052L496.899 380.566C496.963 381.901 497.405 382.915 498.223 383.609C499.051 384.294 500.227 384.631 501.751 384.619C503.494 384.605 504.965 384.191 506.165 383.377C507.364 382.553 508.064 381.535 508.263 380.321C508.432 379.383 508.263 378.603 507.757 377.982C507.26 377.361 506.411 376.908 505.211 376.624L501.866 375.798C500.08 375.357 498.817 374.647 498.077 373.668C497.337 372.689 497.096 371.474 497.354 370.024C497.562 368.838 498.058 367.798 498.842 366.902C499.636 365.996 500.631 365.287 501.828 364.776C503.035 364.256 504.353 363.99 505.783 363.979C507.734 363.963 509.221 364.402 510.246 365.293C511.281 366.175 511.929 367.406 512.19 368.985ZM517.316 386.216C516.804 386.22 516.38 386.048 516.042 385.701C515.713 385.343 515.556 384.914 515.569 384.412C515.583 383.9 515.776 383.473 516.148 383.129C516.529 382.776 516.967 382.597 517.459 382.593C517.961 382.589 518.385 382.766 518.733 383.123C519.08 383.471 519.243 383.891 519.22 384.383C519.198 384.715 519.101 385.024 518.928 385.309C518.755 385.585 518.526 385.804 518.241 385.968C517.965 386.131 517.657 386.214 517.316 386.216Z" fill="#548898"/>
</g>
<defs>
<clipPath id="clip0_20_18">
<rect width="1790.56" height="590.032" fill="white" transform="translate(-248 287.73) rotate(-9.22757)"/>
</clipPath>
</defs>
</svg>
