<svg width="41" height="43" viewBox="0 0 41 43" fill="none" xmlns="http://www.w3.org/2000/svg">
<ellipse cx="20.5" cy="21.5" rx="20.5" ry="21.5" fill="white"/>
<g clip-path="url(#clip0_316_322)">
<path d="M19.3702 17.1003L19.5648 17.7749" stroke="#9C7878" stroke-miterlimit="10"/>
<path d="M19.7733 17.8313L23.2967 15.4047" stroke="#9C7878" stroke-miterlimit="10"/>
<path d="M19.1686 20.1493L19.3632 20.8238" stroke="#9C7878" stroke-miterlimit="10"/>
<path d="M19.5717 20.8823L23.0952 18.4557" stroke="#9C7878" stroke-miterlimit="10"/>
<path d="M19.3702 23.1461L19.5648 23.8227" stroke="#9C7878" stroke-miterlimit="10"/>
<path d="M19.7709 23.8791L23.2967 21.4525" stroke="#9C7878" stroke-miterlimit="10"/>
<path d="M20.9987 32.719C20.368 32.7188 19.738 32.6805 19.113 32.6041V35.8076C19.7393 35.8688 20.3687 35.8995 20.9987 35.8995C23.7378 35.9018 26.4381 35.3147 28.8749 34.187V30.4824C26.5671 31.9403 23.8168 32.7213 20.9987 32.719ZM20.9987 4.70827C20.3687 4.70823 19.7393 4.7389 19.113 4.80016V8.00364C22.5501 7.57994 26.0381 8.33735 28.8842 10.1254V6.42069C26.4445 5.29174 23.741 4.70463 20.9987 4.70827V4.70827ZM13.6414 30.7977C13.1509 30.5202 12.6812 30.2139 12.2352 29.8809ZM7.34037 21.9014H3.78448C4.06253 24.3361 4.97242 26.6776 6.44052 28.7365C7.90863 30.7953 9.89373 32.5137 12.2352 33.7527C12.6661 33.9824 13.1109 34.1954 13.5649 34.3896" fill="#548898"/>
<path d="M13.6414 30.7977C13.1509 30.5202 12.6812 30.2139 12.2352 29.8809M7.34037 21.9014H3.78448C4.06253 24.3361 4.97242 26.6776 6.44052 28.7365C7.90863 30.7953 9.89373 32.5137 12.2352 33.7527C12.6661 33.9824 13.1109 34.1954 13.5649 34.3896M20.9987 32.719C20.368 32.7188 19.738 32.6805 19.113 32.6041V35.8076C19.7393 35.8688 20.3687 35.8995 20.9987 35.8995C23.7378 35.9018 26.4381 35.3147 28.8749 34.187V30.4824C26.5671 31.9403 23.8168 32.7213 20.9987 32.719ZM20.9987 4.70827C20.3687 4.70823 19.7393 4.7389 19.113 4.80016V8.00364C22.5501 7.57994 26.0381 8.33735 28.8842 10.1254V6.42069C26.4445 5.29174 23.741 4.70463 20.9987 4.70827V4.70827Z" stroke="#548898" stroke-miterlimit="10"/>
<path d="M14.0815 9.58237C12.2411 10.5457 10.6733 11.8802 9.50091 13.4813C8.32853 15.0824 7.58347 16.9065 7.32416 18.8107H3.78448C4.07718 16.0919 5.15695 13.4902 6.91568 11.2659C8.67441 9.04166 11.0504 7.27287 13.8058 6.13663L14.1649 5.99463" fill="#548898"/>
<path d="M14.0792 9.64506C14.7984 9.26759 15.5544 8.95024 16.3378 8.69696" stroke="#548898" stroke-width="0.25" stroke-miterlimit="10"/>
<path d="M15.8305 31.8147C14.5302 31.337 13.3173 30.6851 12.2329 29.8809C9.53564 27.8786 7.78543 25.0254 7.33807 21.9014" fill="white"/>
<path d="M15.8305 31.8147C14.5302 31.337 13.3173 30.6851 12.2329 29.8809C9.53564 27.8786 7.78543 25.0254 7.33807 21.9014" stroke="#548898" stroke-miterlimit="10"/>
<path d="M16.3355 8.69697L14.1533 6.05524" stroke="#548898" stroke-miterlimit="10"/>
<path d="M15.8236 31.894L13.558 34.471" stroke="#548898" stroke-miterlimit="10"/>
<path d="M7.3311 21.9828H3.78217" stroke="#548898" stroke-miterlimit="10"/>
<path d="M16.4351 5.64799C17.2462 5.64799 17.9038 5.05522 17.9038 4.324C17.9038 3.59277 17.2462 3 16.4351 3C15.624 3 14.9664 3.59277 14.9664 4.324C14.9664 5.05522 15.624 5.64799 16.4351 5.64799Z" fill="#9C7878"/>
<path d="M2.46869 21.6279C3.27982 21.6279 3.93737 21.0351 3.93737 20.3039C3.93737 19.5726 3.27982 18.9799 2.46869 18.9799C1.65755 18.9799 1 19.5726 1 20.3039C1 21.0351 1.65755 21.6279 2.46869 21.6279Z" fill="#548898"/>
<path d="M16.4351 37C17.2462 37 17.9038 36.4072 17.9038 35.676C17.9038 34.9448 17.2462 34.352 16.4351 34.352C15.624 34.352 14.9664 34.9448 14.9664 35.676C14.9664 36.4072 15.624 37 16.4351 37Z" fill="#9C7878"/>
<path d="M21.2327 12.0466V9.03109V12.0466Z" stroke="#6998AB" stroke-width="4" stroke-miterlimit="10"/>
<path d="M7.65771 20.5231H11.0028H7.65771Z" stroke="#6998AB" stroke-width="4" stroke-miterlimit="10"/>
<path d="M21.2327 31.6247L21.2327 28.298L21.2327 31.6247Z" stroke="#6998AB" stroke-width="4" stroke-miterlimit="10"/>
<path d="M10.7572 28.6091H10.6831" stroke="#548898" stroke-miterlimit="10"/>
<path d="M13.4769 34.352H13.5464H13.6622" stroke="#548898" stroke-miterlimit="10"/>
<path d="M13.7155 30.9209L10.4329 32.5143L13.5556 34.2789L13.7155 30.9209Z" fill="#548898" stroke="#548898" stroke-miterlimit="10"/>
<path d="M10.6831 28.8346L11.1719 29.9811L11.9688 31.5411L12.2352 31.8732L13.0367 31.5056L13.4838 31.2905L13.6135 31.1903L13.7178 31.0566L10.6831 28.8117" fill="#548898"/>
<path d="M10.6831 28.8346L11.1719 29.9811L11.9688 31.5411L12.2352 31.8732L13.0367 31.5056L13.4838 31.2905L13.6135 31.1903L13.7178 31.0566L10.6831 28.8117" stroke="#548898" stroke-miterlimit="10"/>
<path d="M10.6414 28.6237L10.931 29.1061L11.0514 28.9411L10.6414 28.5402V28.6237Z" fill="#548898" stroke="#548898" stroke-miterlimit="10"/>
<path d="M11.0515 29.0456L11.4823 29.3713L11.0723 28.9474L11.0515 29.0456Z" fill="#548898" stroke="#548898" stroke-miterlimit="10"/>
<path d="M12.9904 30.4886L13.5765 30.9773L13.6877 30.8729L13.0182 30.4886" fill="#548898"/>
<path d="M12.9904 30.4886L13.5765 30.9773L13.6877 30.8729L13.0182 30.4886" stroke="#548898" stroke-miterlimit="10"/>
</g>
<defs>
<clipPath id="clip0_316_322">
<rect width="28" height="34" fill="white" transform="translate(1 3)"/>
</clipPath>
</defs>
</svg>
