<svg width="47" height="47" viewBox="0 0 47 47" fill="none" xmlns="http://www.w3.org/2000/svg">
<g clip-path="url(#clip0_191_342)">
<path d="M23.4999 0C36.4777 0 47 10.5221 47 23.5001C47 36.478 36.4779 47 23.5001 47C10.5223 47 0 36.4779 0 23.5001C0 10.5223 10.5207 0 23.4999 0Z" fill="#3F729B"/>
<path d="M31.6104 10.2783H15.3881C12.5696 10.2783 10.2783 12.5711 10.2783 15.3881V31.612C10.2783 34.4305 12.5711 36.7218 15.3881 36.7218H31.612C34.4305 36.7218 36.7218 34.4291 36.7218 31.612V15.3881C36.7216 12.5711 34.4289 10.2783 31.6104 10.2783ZM33.2202 13.2349L33.7989 13.2335V17.6221L29.378 17.6368L29.3633 13.2482C29.3633 13.2482 33.2202 13.2349 33.2202 13.2349ZM23.5001 19.0761C27.1675 19.0761 27.9239 22.5188 27.9239 23.5014C27.9239 25.938 25.9382 27.9237 23.5001 27.9237C21.0605 27.9237 19.0762 25.938 19.0762 23.5014C19.0746 22.5188 19.8326 19.0761 23.5001 19.0761ZM33.8239 31.2917C33.8239 32.6886 32.6886 33.8253 31.2888 33.8253H15.6613C14.263 33.8253 13.1262 32.69 13.1262 31.2917V20.5567H16.798C16.4573 21.3953 16.2648 22.5409 16.2648 23.5015C16.2648 27.4878 19.5078 30.7322 23.4955 30.7322C27.4833 30.7322 30.7246 27.4878 30.7246 23.5015C30.7246 22.5409 30.5322 21.3953 30.1929 20.5567H33.8207V31.2917H33.8239Z" fill="white"/>
</g>
<defs>
<clipPath id="clip0_191_342">
<rect width="47" height="47" fill="white"/>
</clipPath>
</defs>
</svg>
