<svg width="47" height="47" viewBox="0 0 47 47" fill="none" xmlns="http://www.w3.org/2000/svg">
<g clip-path="url(#clip0_191_361)">
<path d="M23.4999 0C36.4793 0 47 10.5221 47 23.5001C47 36.478 36.4793 47 23.4999 47C10.5205 47 0 36.4779 0 23.5001C0 10.5223 10.5207 0 23.4999 0Z" fill="#0E76A8"/>
<path d="M13.2422 32.289H17.6427V17.622H13.2422V32.289ZM30.3856 17.114C28.25 17.114 26.3391 17.8939 24.9836 19.6153V17.5738H20.567V32.2892H24.9836V24.3315C24.9836 22.6497 26.5243 21.0091 28.4542 21.0091C30.3841 21.0091 30.86 22.6497 30.86 24.2903V32.2877H35.2605V23.9628C35.2603 18.1802 32.5226 17.114 30.3856 17.114ZM15.4219 16.1563C16.638 16.1563 17.6251 15.1692 17.6251 13.9531C17.6251 12.7369 16.638 11.7501 15.4219 11.7501C14.2057 11.7501 13.2187 12.7371 13.2187 13.9533C13.2187 15.1694 14.2057 16.1563 15.4219 16.1563Z" fill="white"/>
</g>
<defs>
<clipPath id="clip0_191_361">
<rect width="47" height="47" fill="white"/>
</clipPath>
</defs>
</svg>
