<svg width="47" height="47" viewBox="0 0 47 47" fill="none" xmlns="http://www.w3.org/2000/svg">
<g clip-path="url(#clip0_191_322)">
<path d="M23.5002 46.9996C36.4787 46.9996 46.9999 36.4784 46.9999 23.4998C46.9999 10.5212 36.4787 0 23.5002 0C10.5216 0 0.000366211 10.5212 0.000366211 23.4998C0.000366211 36.4784 10.5216 46.9996 23.5002 46.9996Z" fill="#55ACEE"/>
<path d="M37.8946 16.8886C36.8876 17.3352 35.8043 17.6372 34.6682 17.7721C35.8281 17.0771 36.7183 15.9775 37.1385 14.665C36.0531 15.3089 34.8504 15.776 33.5715 16.0277C32.5469 14.9365 31.087 14.2545 29.4704 14.2545C26.3688 14.2545 23.8533 16.77 23.8533 19.8716C23.8533 20.3119 23.9031 20.7404 23.9995 21.1518C19.3312 20.9176 15.192 18.6815 12.4214 15.2821C11.9379 16.1115 11.6606 17.0771 11.6606 18.1064C11.6606 20.0547 12.653 21.7747 14.1594 22.7818C13.2391 22.7529 12.3723 22.5003 11.6154 22.0784C11.615 22.1023 11.615 22.1262 11.615 22.1496C11.615 24.8713 13.552 27.1413 16.1211 27.657C15.6503 27.786 15.153 27.8543 14.6416 27.8543C14.2788 27.8543 13.9273 27.8195 13.5847 27.7542C14.2993 29.9853 16.3733 31.6094 18.8319 31.655C16.9091 33.1618 14.4874 34.0596 11.855 34.0596C11.4026 34.0596 10.9543 34.0332 10.5157 33.9808C13.0003 35.5752 15.9536 36.5047 19.1255 36.5047C29.4574 36.5047 35.1076 27.9456 35.1076 20.5222C35.1076 20.2788 35.1022 20.0363 35.0913 19.7958C36.1897 19.0041 37.1418 18.015 37.8946 16.8886Z" fill="#F1F2F2"/>
</g>
<defs>
<clipPath id="clip0_191_322">
<rect width="47" height="47" fill="white"/>
</clipPath>
</defs>
</svg>
